<svg data-v-423bf9ae="" xmlns="http://www.w3.org/2000/svg" viewBox="0 0 1183 90" class="iconLeftSlogan"><!----><!----><!----><g data-v-423bf9ae="" id="24e77b3e-244a-44ff-92e4-966017924fbd" fill="black" transform="matrix(4.267425192696808,0,0,4.267425192696808,83.07636739449106,0.4267424287710959)"><path d="M1.44 1.47L3.71 1.47L3.71 9.60L2.38 10.01L2.38 10.50L6.30 10.50L6.44 9.87L5.11 9.60L5.11 1.47L7.34 1.47L7.80 3.49L8.50 3.35L8.50 0.70L0.28 0.70L0.28 3.35L0.98 3.49ZM11.55 0L9.06 0.34L9.13 0.91L10.29 1.13L10.29 9.66L9.06 10.08L9.06 10.50L12.46 10.50L12.60 9.83L11.55 9.63L11.55 4.96C11.91 4.52 12.75 4.24 13.50 4.24C14.39 4.24 14.84 4.55 14.84 5.95L14.84 9.66L13.76 10.08L13.76 10.50L17.08 10.50L17.22 9.87L16.10 9.63L16.09 5.67C16.09 3.88 15.32 3.09 13.97 3.09C13.20 3.09 12.18 3.50 11.55 4.27ZM24.36 6.75C24.36 5.00 23.86 3.11 21.36 3.11C19.75 3.11 17.99 4.35 17.99 6.83C17.99 9.25 19.56 10.63 21.41 10.63C22.34 10.63 23.34 10.28 24.25 9.56L23.94 9.03C23.23 9.49 22.54 9.72 21.88 9.72C20.47 9.72 19.39 8.60 19.39 6.75ZM19.43 5.99C19.47 4.62 20.44 3.86 21.32 3.86C22.16 3.86 22.96 4.52 22.96 5.99ZM34.44 1.19L34.44 0.70L30.52 0.70L30.38 1.33L31.71 1.60L31.71 9.60L30.38 10.01L30.38 10.50L34.30 10.50L34.44 9.87L33.11 9.60L33.11 1.60ZM42.45 5.67C42.41 3.88 41.66 3.09 40.32 3.09C39.55 3.09 38.53 3.50 37.90 4.27L37.90 3.12L35.42 3.46L35.49 4.07L36.65 4.30L36.65 9.66L35.43 10.08L35.43 10.50L38.82 10.50L38.96 9.83L37.90 9.63L37.90 4.96C38.26 4.52 39.10 4.24 39.84 4.24C40.74 4.24 41.19 4.55 41.19 5.95L41.19 9.66L40.11 10.08L40.11 10.50L43.43 10.50L43.57 9.87L42.45 9.63ZM44.44 10.16C45.04 10.43 45.95 10.64 46.86 10.64C48.27 10.64 49.63 10.12 49.63 8.47C49.63 6.22 45.88 6.59 45.88 4.90C45.88 4.12 46.52 3.89 47.24 3.89C47.68 3.89 47.88 3.93 48.20 4.03L48.58 5.46L49.31 5.33L49.31 3.58C49.03 3.30 48.30 3.12 47.50 3.12C46.14 3.12 44.58 3.65 44.58 5.11C44.58 7.46 48.37 7.06 48.31 8.68C48.30 9.52 47.71 9.87 46.87 9.87C46.33 9.87 46.03 9.76 45.54 9.55L45.16 8.16L44.44 8.29ZM55.24 9.20C54.67 9.55 54.25 9.69 53.82 9.69C53.10 9.69 53.00 9.38 53.00 8.36L53.00 4.24L55.24 4.24L55.24 3.47L53.00 3.47L53.00 1.79L52.30 1.79L51.81 3.33L50.64 3.75L50.64 4.24L51.74 4.24L51.74 8.69C51.74 9.83 52.09 10.67 53.33 10.67C54.17 10.67 55.08 10.21 55.51 9.53ZM58.70 3.12L56.24 3.46L56.31 4.03L57.44 4.24L57.44 9.66L56.21 10.08L56.21 10.50L59.61 10.50L59.75 9.83L58.70 9.63ZM56.98 1.08C57.19 1.47 57.53 1.81 57.92 2.02C58.32 1.78 58.66 1.46 58.90 1.05C58.69 0.64 58.37 0.32 57.96 0.11C57.54 0.35 57.22 0.67 56.98 1.08ZM65.13 9.20C64.55 9.55 64.13 9.69 63.70 9.69C62.99 9.69 62.89 9.38 62.89 8.36L62.89 4.24L65.13 4.24L65.13 3.47L62.89 3.47L62.89 1.79L62.19 1.79L61.70 3.33L60.52 3.75L60.52 4.24L61.63 4.24L61.63 8.69C61.63 9.83 61.98 10.67 63.21 10.67C64.05 10.67 64.96 10.21 65.39 9.53ZM67.14 8.04C67.16 9.83 67.93 10.61 69.27 10.61C70.04 10.61 71.06 10.21 71.69 9.44L71.69 10.50L73.92 10.50L74.07 9.88L72.94 9.63L72.94 3.21L70.77 3.21L70.63 3.88L71.69 4.07L71.69 8.75C71.33 9.18 70.49 9.46 69.75 9.46C68.85 9.46 68.40 9.16 68.40 7.76L68.40 3.21L66.16 3.21L66.02 3.84L67.14 4.07ZM79.55 9.20C78.97 9.55 78.55 9.69 78.12 9.69C77.41 9.69 77.31 9.38 77.31 8.36L77.31 4.24L79.55 4.24L79.55 3.47L77.31 3.47L77.31 1.79L76.61 1.79L76.12 3.33L74.94 3.75L74.94 4.24L76.05 4.24L76.05 8.69C76.05 9.83 76.40 10.67 77.63 10.67C78.47 10.67 79.38 10.21 79.81 9.53ZM86.95 6.75C86.95 5.00 86.45 3.11 83.96 3.11C82.35 3.11 80.58 4.35 80.58 6.83C80.58 9.25 82.15 10.63 84 10.63C84.94 10.63 85.93 10.28 86.84 9.56L86.53 9.03C85.82 9.49 85.13 9.72 84.48 9.72C83.06 9.72 81.98 8.60 81.98 6.75ZM82.03 5.99C82.07 4.62 83.03 3.86 83.92 3.86C84.76 3.86 85.55 4.52 85.55 5.99ZM96.67-0.10C95.48-0.10 94.21 0.57 94.21 2.44L94.19 3.47L92.97 3.47L92.97 4.24L94.19 4.24L94.19 9.66L92.97 10.08L92.97 10.50L96.87 10.50L97.01 9.83L95.45 9.63L95.45 4.24L97.31 4.24L97.31 3.47L95.45 3.47L95.45 2.45C95.45 1.09 95.83 0.67 96.67 0.67C96.89 0.67 97.19 0.73 97.41 0.84L97.80 2.38L98.50 2.24L98.50 0.38C97.96 0.06 97.22-0.10 96.67-0.10ZM101.85 9.84C100.10 9.84 99.55 8.27 99.55 6.73C99.55 5.28 100.16 3.85 101.65 3.85C103.40 3.85 103.95 5.42 103.95 6.96C103.95 8.41 103.35 9.84 101.85 9.84ZM101.64 3.08C99.40 3.08 98.15 5.00 98.15 6.89C98.15 8.76 99.34 10.61 101.86 10.61C104.10 10.61 105.35 8.69 105.35 6.80C105.35 4.93 104.16 3.08 101.64 3.08ZM111.97 3.32C111.68 3.19 111.37 3.12 111.05 3.12C110.22 3.12 109.51 3.60 108.88 4.27L108.88 3.12L106.40 3.46L106.47 4.07L107.63 4.30L107.63 9.66L106.41 10.08L106.41 10.50L110.03 10.50L110.17 9.83L108.88 9.63L108.88 4.96C109.26 4.52 109.98 4.24 110.59 4.24C110.66 4.24 110.80 4.24 110.87 4.26L111.24 5.32L111.97 5.19ZM126.52 5.63C126.52 2.94 124.88 0.70 121.63 0.70L117.64 0.70L117.50 1.33L118.83 1.60L118.83 9.60L117.50 10.01L117.50 10.50L121.63 10.50C124.77 10.50 126.52 8.32 126.52 5.63ZM121.39 1.47C123.97 1.47 125.05 3.11 125.05 5.63C125.05 8.15 123.70 9.73 121.39 9.73L120.23 9.73L120.23 1.47ZM130.13 3.12L127.67 3.46L127.74 4.03L128.87 4.24L128.87 9.66L127.64 10.08L127.64 10.50L131.04 10.50L131.18 9.83L130.13 9.63ZM128.41 1.08C128.62 1.47 128.95 1.81 129.35 2.02C129.75 1.78 130.09 1.46 130.33 1.05C130.12 0.64 129.79 0.32 129.39 0.11C128.97 0.35 128.65 0.67 128.41 1.08ZM135.25 8.25C136.65 8.25 138.01 7.62 138.01 5.75C138.01 5.25 137.93 4.82 137.75 4.44L139.50 4.48L139.50 3.51C139.15 3.54 138.81 3.57 138.50 3.58C137.96 3.63 137.38 3.65 137.12 3.65C136.63 3.26 135.97 3.08 135.24 3.08C133.70 3.08 132.27 3.86 132.27 5.75C132.27 6.87 132.85 7.53 133.67 7.91C133.04 8.29 132.68 8.85 132.68 9.34C132.68 9.77 132.86 10.14 133.24 10.40C132.50 10.89 132.02 11.38 132.02 12.10C132.02 13.37 133.13 13.96 134.81 13.96C136.78 13.96 138.99 12.92 138.99 11.12C138.99 10.33 138.52 9.69 137.33 9.65L134.69 9.65C134.08 9.63 133.78 9.39 133.78 9.07C133.78 8.72 134.04 8.39 134.36 8.15C134.65 8.22 134.96 8.25 135.25 8.25ZM135.28 7.48C134.13 7.48 133.67 6.72 133.67 5.71C133.67 4.66 134.16 3.82 135.14 3.82C136.15 3.82 136.61 4.70 136.61 5.75C136.61 6.76 136.22 7.48 135.28 7.48ZM136.65 10.84C137.73 10.84 138.04 11.06 138.04 11.61C138.04 12.43 136.72 13.15 135.41 13.15C134.18 13.15 133.31 12.80 133.31 11.72C133.31 11.37 133.46 11.02 133.77 10.65C134.12 10.78 134.53 10.84 134.99 10.84ZM142.69 3.12L140.22 3.46L140.29 4.03L141.43 4.24L141.43 9.66L140.20 10.08L140.20 10.50L143.60 10.50L143.74 9.83L142.69 9.63ZM140.97 1.08C141.18 1.47 141.51 1.81 141.90 2.02C142.31 1.78 142.65 1.46 142.88 1.05C142.67 0.64 142.35 0.32 141.95 0.11C141.53 0.35 141.20 0.67 140.97 1.08ZM149.11 9.20C148.54 9.55 148.12 9.69 147.69 9.69C146.97 9.69 146.87 9.38 146.87 8.36L146.87 4.24L149.11 4.24L149.11 3.47L146.87 3.47L146.87 1.79L146.17 1.79L145.68 3.33L144.51 3.75L144.51 4.24L145.61 4.24L145.61 8.69C145.61 9.83 145.96 10.67 147.20 10.67C148.04 10.67 148.95 10.21 149.38 9.53ZM156.69 10.50L156.83 9.86L155.82 9.62L155.82 5.32C155.82 3.64 154.66 3.09 153.20 3.09C152.25 3.09 151.42 3.39 150.70 3.71L150.70 5.53L151.42 5.66L151.82 4.06C152.25 3.91 152.70 3.86 153.13 3.86C153.92 3.86 154.56 4.26 154.56 5.31L154.56 6.45C153.55 6.57 152.75 6.72 151.84 6.96C150.63 7.28 150.22 7.84 150.22 8.78C150.22 9.95 151.09 10.61 152.08 10.61C152.89 10.61 154 10.04 154.56 9.37L154.56 10.50ZM151.62 8.67C151.62 8.09 151.89 7.59 152.77 7.35C153.37 7.18 153.96 7.11 154.56 7.04L154.56 8.64C154.22 9.13 153.34 9.73 152.67 9.73C152.11 9.73 151.62 9.55 151.62 8.67ZM160.02 0L157.56 0.34L157.63 0.91L158.76 1.12L158.76 9.66L157.53 10.08L157.53 10.50L161.07 10.50L161.21 9.83L160.02 9.63ZM175.13 9.63L171.71 0.70L170.69 0.70L167.31 9.66L166.32 10.01L166.32 10.50L169.13 10.50L169.27 9.87L168.14 9.66L168.99 7.42L172.84 7.42L173.74 9.70L172.75 10.01L172.75 10.50L175.97 10.50L176.11 9.87ZM170.91 2.32L172.56 6.65L169.27 6.65ZM181.68 10.50L183.74 10.50L183.88 9.86L182.92 9.62L182.92 0L180.45 0.34L180.52 0.95L181.68 1.18L181.68 3.65C181.16 3.33 180.59 3.18 180.03 3.18C178.22 3.18 176.46 4.69 176.46 7.10C176.46 9.23 177.94 10.61 179.49 10.61C180.38 10.61 181.05 10.28 181.68 9.70ZM179.76 9.69C178.40 9.69 177.86 8.37 177.86 6.80C177.86 5.12 178.95 3.96 180.12 3.96C180.64 3.96 181.19 4.19 181.68 4.69L181.68 8.85C181.10 9.35 180.36 9.69 179.76 9.69ZM190.44 4.03L188.54 8.81L186.65 3.99L187.66 3.64L187.66 3.22L184.44 3.22L184.30 3.85L185.30 4.03L187.87 10.50L188.69 10.50L191.25 4.06L192.26 3.64L192.26 3.22L189.59 3.22L189.45 3.89ZM199.15 10.50L199.29 9.86L198.28 9.62L198.28 5.32C198.28 3.64 197.12 3.09 195.66 3.09C194.71 3.09 193.89 3.39 193.16 3.71L193.16 5.53L193.89 5.66L194.28 4.06C194.71 3.91 195.16 3.86 195.59 3.86C196.38 3.86 197.02 4.26 197.02 5.31L197.02 6.45C196.01 6.57 195.22 6.72 194.31 6.96C193.09 7.28 192.68 7.84 192.68 8.78C192.68 9.95 193.55 10.61 194.54 10.61C195.36 10.61 196.46 10.04 197.02 9.37L197.02 10.50ZM194.08 8.67C194.08 8.09 194.35 7.59 195.23 7.35C195.83 7.18 196.42 7.11 197.02 7.04L197.02 8.64C196.69 9.13 195.80 9.73 195.13 9.73C194.57 9.73 194.08 9.55 194.08 8.67ZM207.09 5.67C207.05 3.88 206.30 3.09 204.96 3.09C204.19 3.09 203.17 3.50 202.54 4.27L202.54 3.12L200.06 3.46L200.13 4.07L201.29 4.30L201.29 9.66L200.07 10.08L200.07 10.50L203.46 10.50L203.60 9.83L202.54 9.63L202.54 4.96C202.90 4.52 203.74 4.24 204.48 4.24C205.38 4.24 205.83 4.55 205.83 5.95L205.83 9.66L204.75 10.08L204.75 10.50L208.07 10.50L208.21 9.87L207.09 9.63ZM214.23 5.75L214.93 5.61L214.93 3.75C214.21 3.30 213.47 3.09 212.70 3.09C210.80 3.09 208.98 4.47 208.98 6.86C208.98 9.28 210.59 10.65 212.49 10.65C213.44 10.65 214.37 10.29 215.11 9.58L214.80 9.04C214.23 9.48 213.39 9.73 212.76 9.73C211.12 9.73 210.38 8.26 210.38 6.76C210.38 5.12 211.34 3.86 212.74 3.86C213.07 3.86 213.43 3.95 213.84 4.10ZM222.32 6.75C222.32 5.00 221.82 3.11 219.32 3.11C217.71 3.11 215.95 4.35 215.95 6.83C215.95 9.25 217.52 10.63 219.37 10.63C220.30 10.63 221.30 10.28 222.21 9.56L221.90 9.03C221.19 9.49 220.50 9.72 219.84 9.72C218.43 9.72 217.35 8.60 217.35 6.75ZM217.39 5.99C217.43 4.62 218.40 3.86 219.28 3.86C220.12 3.86 220.92 4.52 220.92 5.99ZM230.29 9.63L230.29 5.15C230.68 4.63 231.24 4.24 231.98 4.24C232.69 4.24 233.39 4.68 233.39 5.74L233.39 9.66L232.39 10.08L232.39 10.50L235.65 10.50L235.79 9.87L234.65 9.63L234.65 5.74C234.65 3.95 233.73 3.09 232.60 3.09C231.70 3.09 230.72 3.67 230.10 4.55C229.77 3.56 229.14 3.09 228.30 3.09C227.51 3.09 226.55 3.49 225.92 4.27L225.92 3.12L223.44 3.46L223.51 4.07L224.67 4.30L224.67 9.66L223.45 10.08L223.45 10.50L226.77 10.50L226.91 9.83L225.92 9.63L225.92 4.96C226.30 4.52 227.04 4.24 227.64 4.24C228.41 4.24 229.03 4.68 229.03 5.74L229.03 9.66L228.02 10.08L228.02 10.50L231.22 10.50L231.36 9.87ZM242.93 6.75C242.93 5.00 242.42 3.11 239.93 3.11C238.32 3.11 236.56 4.35 236.56 6.83C236.56 9.25 238.13 10.63 239.97 10.63C240.91 10.63 241.91 10.28 242.82 9.56L242.51 9.03C241.79 9.49 241.11 9.72 240.45 9.72C239.04 9.72 237.96 8.60 237.96 6.75ZM238.00 5.99C238.04 4.62 239.01 3.86 239.89 3.86C240.73 3.86 241.53 4.52 241.53 5.99ZM251.08 5.67C251.03 3.88 250.29 3.09 248.95 3.09C248.18 3.09 247.16 3.50 246.53 4.27L246.53 3.12L244.05 3.46L244.12 4.07L245.28 4.30L245.28 9.66L244.06 10.08L244.06 10.50L247.45 10.50L247.59 9.83L246.53 9.63L246.53 4.96C246.89 4.52 247.73 4.24 248.47 4.24C249.37 4.24 249.82 4.55 249.82 5.95L249.82 9.66L248.74 10.08L248.74 10.50L252.06 10.50L252.20 9.87L251.08 9.63ZM257.43 9.20C256.86 9.55 256.44 9.69 256.00 9.69C255.29 9.69 255.19 9.38 255.19 8.36L255.19 4.24L257.43 4.24L257.43 3.47L255.19 3.47L255.19 1.79L254.49 1.79L254.00 3.33L252.83 3.75L252.83 4.24L253.93 4.24L253.93 8.69C253.93 9.83 254.28 10.67 255.51 10.67C256.35 10.67 257.26 10.21 257.70 9.53Z"></path></g><!----><g data-v-423bf9ae="" id="82defdda-5199-48df-9bcd-5b6d0b984ad8" transform="matrix(2.8125,0,0,2.8125,-12.426001459360123,0)" stroke="none" fill="black"><path d="M27.377 11.377L16 0 4.623 11.377 16 22.753l11.377-11.376zM16 6.026l5.35 5.35L16 16.727l-5.35-5.35L16 6.026zM27.426 14.969l-5.664 5.664V32h5.664zM10.238 20.633l-5.664-5.664V32h5.664z"></path></g><!----><g data-v-423bf9ae="" id="c2e86c53-8731-4046-8614-2dc63a7e84e6" fill="black" transform="matrix(1.7114579388851738,0,0,1.7114579388851738,83.50110645751221,55.03677188587622)"><path d="M0.45 12.46C0.45 12.63 0.46 12.70 0.64 12.70C0.80 12.70 2.03 12.64 2.42 12.64C3.28 12.64 4.16 12.70 5.01 12.70C7.63 12.70 10.02 11.07 10.02 7.91C10.02 4.89 7.69 3.07 4.65 3.07C4.09 3.07 2.83 3.23 1.79 3.23C1.32 3.23 0.85 3.22 0.80 3.22C0.62 3.22 0.60 3.32 0.60 3.49C0.60 3.68 0.67 3.70 0.80 3.70L1.76 3.67C1.79 3.67 1.79 4.20 1.79 4.72C1.79 5.91 1.71 12.21 1.62 12.21L0.73 12.21C0.55 12.21 0.45 12.22 0.45 12.46ZM3.02 11.40C3.02 9.46 3.02 7.52 3.04 5.60C3.04 5.03 3.08 3.61 3.12 3.60C3.42 3.53 4.00 3.51 4.35 3.51C6.92 3.51 8.53 5.75 8.53 7.73C8.53 8.95 8.48 12.25 3.81 12.25C3.54 12.25 3.14 12.25 3.04 12.21C3.02 12.19 3.02 11.79 3.02 11.40ZM17.99 12.39C17.99 12.63 18.03 12.68 18.23 12.68C18.55 12.68 19.31 12.64 20.02 12.64C20.68 12.64 21.48 12.68 21.70 12.68C21.87 12.68 21.90 12.61 21.90 12.40C21.90 12.24 21.87 12.18 21.70 12.18L20.73 12.18C20.64 12.18 20.61 9.55 20.61 7.76L20.61 5.87C20.61 5.14 20.64 3.70 20.73 3.70L21.64 3.70C21.87 3.70 21.90 3.68 21.90 3.49C21.90 3.25 21.87 3.19 21.70 3.19C21.38 3.19 20.71 3.23 20.05 3.23C19.24 3.23 18.52 3.19 18.30 3.19C18.12 3.19 18.05 3.21 18.05 3.44C18.05 3.68 18.13 3.70 18.30 3.70L19.22 3.70C19.26 3.70 19.33 4.79 19.33 5.71L19.33 7.08C19.33 8.92 19.32 12.18 19.21 12.18L18.28 12.18C18.06 12.18 17.99 12.19 17.99 12.39ZM29.86 7.91C29.86 11.40 32.23 12.89 34.82 12.89C36.71 12.89 38.71 11.89 38.71 11.58C38.71 11.12 38.72 10.68 38.72 10.33C38.72 9.81 38.74 9.56 38.86 9.56L39.30 9.56C39.44 9.56 39.45 9.39 39.45 9.30C39.45 9.18 39.44 9.06 39.30 9.06C39.07 9.06 38.71 9.10 38.04 9.10C37.59 9.10 36.85 9.07 36.16 9.06C36.02 9.06 36.02 9.24 36.02 9.35C36.02 9.45 36.05 9.56 36.18 9.56L37.39 9.56C37.44 9.56 37.49 9.87 37.49 10.33C37.49 10.82 37.48 11.41 37.45 11.65C37.44 11.76 36.79 12.39 35.21 12.39C32.97 12.39 31.37 10.29 31.37 7.94C31.37 5.42 32.93 3.54 34.93 3.54C36.82 3.54 38.00 4.87 38.00 5.03C38.00 5.15 37.94 6.12 37.94 6.17C37.94 6.31 37.98 6.36 38.25 6.36C38.44 6.36 38.51 6.33 38.51 6.15C38.51 5.43 38.56 3.75 38.56 3.56C38.56 3.36 38.46 3.33 38.25 3.33C38.02 3.33 38.00 3.39 38.00 3.56L38.00 3.91C38.00 3.99 37.95 4.02 37.83 3.92C37.55 3.72 36.55 3.08 34.99 3.08C32.14 3.08 29.86 4.79 29.86 7.91ZM47.35 12.39C47.35 12.63 47.39 12.68 47.59 12.68C47.91 12.68 48.66 12.64 49.38 12.64C50.04 12.64 50.83 12.68 51.06 12.68C51.23 12.68 51.25 12.61 51.25 12.40C51.25 12.24 51.23 12.18 51.06 12.18L50.09 12.18C49.99 12.18 49.97 9.55 49.97 7.76L49.97 5.87C49.97 5.14 49.99 3.70 50.09 3.70L51.00 3.70C51.23 3.70 51.25 3.68 51.25 3.49C51.25 3.25 51.23 3.19 51.06 3.19C50.74 3.19 50.06 3.23 49.41 3.23C48.59 3.23 47.88 3.19 47.66 3.19C47.47 3.19 47.40 3.21 47.40 3.44C47.40 3.68 47.49 3.70 47.66 3.70L48.58 3.70C48.62 3.70 48.69 4.79 48.69 5.71L48.69 7.08C48.69 8.92 48.68 12.18 48.57 12.18L47.64 12.18C47.42 12.18 47.35 12.19 47.35 12.39ZM58.88 5.01C58.88 5.17 59.07 5.17 59.19 5.17C59.35 5.17 59.39 5.15 59.40 4.97L59.51 3.89C59.53 3.81 60.07 3.75 60.83 3.75L62.82 3.75C62.87 3.75 62.90 4.35 62.90 4.97C62.90 6.43 62.85 12.18 62.72 12.18L61.85 12.18C61.63 12.18 61.59 12.19 61.59 12.39C61.59 12.63 61.60 12.68 61.80 12.68C62.12 12.68 63.10 12.64 63.52 12.64C63.94 12.64 64.88 12.68 65.20 12.68C65.37 12.68 65.39 12.61 65.39 12.40C65.39 12.24 65.37 12.18 65.20 12.18L64.20 12.18C64.18 12.18 64.18 11.76 64.18 11.31C64.18 9.56 64.26 5.96 64.26 5.92C64.27 5.18 64.27 3.75 64.37 3.75L65.98 3.75C66.70 3.75 67.52 3.78 67.52 3.85C67.52 3.99 67.48 4.90 67.48 4.97C67.48 5.12 67.55 5.17 67.73 5.17C67.93 5.17 68.00 5.17 68.00 5.03C68.00 3.93 68.05 3.40 68.05 3.14C68.05 2.94 67.97 2.94 67.77 2.94C67.62 2.94 67.56 2.98 67.55 3.16C67.55 3.23 66.91 3.28 66.07 3.28L61.07 3.28C60.41 3.28 59.60 3.28 59.60 3.21L59.60 3.07C59.60 2.94 59.47 2.94 59.37 2.94C59.15 2.94 59.12 3.00 59.11 3.19C59.05 3.89 58.88 4.97 58.88 5.01ZM73.85 12.39C73.85 12.63 73.85 12.68 74.05 12.68C74.21 12.68 74.54 12.64 75.11 12.64C75.73 12.64 76.27 12.68 76.43 12.68C76.59 12.68 76.59 12.61 76.59 12.40C76.59 12.24 76.59 12.18 76.43 12.18L75.35 12.18C75.35 12.18 75.33 12.18 75.33 12.17C75.35 11.87 76.12 9.90 76.47 9.02C76.54 8.83 76.55 8.79 76.76 8.79L79.59 8.79C79.73 8.79 79.73 8.81 79.80 9.03C80.07 9.77 80.78 11.89 80.78 12.17C80.78 12.18 80.77 12.18 80.77 12.18L80.00 12.18C79.77 12.18 79.76 12.19 79.76 12.39C79.76 12.63 79.77 12.68 79.94 12.68C80.26 12.68 81.13 12.64 81.55 12.64C81.97 12.64 82.64 12.68 82.85 12.68C82.99 12.68 83.01 12.61 83.01 12.40C83.01 12.24 82.99 12.18 82.85 12.18L82.36 12.18C82.26 12.18 81.24 9.34 80.68 7.78L79.00 3.07C78.99 3.00 78.92 2.94 78.83 2.94C78.71 2.94 78.61 3.16 78.53 3.35C78.37 3.71 78.13 3.84 78.02 4.13L76.54 7.57C76.36 8.01 74.65 12.18 74.52 12.18L74.10 12.18C73.88 12.18 73.85 12.19 73.85 12.39ZM76.75 8.33C76.75 8.30 76.78 8.23 76.82 8.13L78.19 4.77C78.23 4.66 78.26 4.61 78.29 4.61C78.30 4.61 78.32 4.63 78.36 4.77L79.52 8.18C79.55 8.25 79.56 8.29 79.56 8.32C79.56 8.36 79.53 8.37 79.44 8.37L76.93 8.37C76.75 8.37 76.75 8.34 76.75 8.33ZM90.76 12.39C90.76 12.63 90.79 12.68 90.99 12.68C91.31 12.68 92.27 12.64 92.69 12.64C93.11 12.64 97.47 12.68 97.79 12.68C98.06 12.68 98.13 12.66 98.14 12.49C98.20 12.08 98.43 10.72 98.43 10.60C98.43 10.47 98.28 10.44 98.11 10.43C98.01 10.42 97.93 10.46 97.92 10.56L97.75 11.76C97.71 12.05 97.69 12.03 97.47 12.04C97.31 12.05 94.81 12.12 93.38 12.12C93.34 12.12 93.30 11.38 93.30 10.54L93.30 6.66C93.30 5.40 93.31 3.70 93.41 3.70L94.39 3.70C94.63 3.70 94.65 3.63 94.65 3.44C94.65 3.23 94.64 3.19 94.40 3.19C94.08 3.19 93.14 3.23 92.72 3.23C92.30 3.23 91.36 3.19 91.14 3.19C90.92 3.19 90.86 3.22 90.86 3.44C90.86 3.65 90.90 3.70 91.10 3.70L91.92 3.70C91.97 3.70 91.99 4.23 91.99 4.90L91.99 8.13C91.99 10.07 91.97 12.18 91.88 12.18L91.04 12.18C90.82 12.18 90.76 12.21 90.76 12.39ZM115.85 3.51C115.85 3.75 115.89 3.79 116.10 3.79L117.03 3.77C117.08 3.77 117.08 4.47 117.08 5.24L117.08 5.96C117.08 7.70 117.07 12.18 116.96 12.18L116.28 12.18C116.06 12.18 115.99 12.19 115.99 12.39C115.99 12.63 116.00 12.68 116.20 12.68C116.33 12.68 117.31 12.64 117.73 12.64C118.15 12.64 119.01 12.68 119.34 12.68C119.50 12.68 119.53 12.61 119.53 12.40C119.53 12.24 119.50 12.18 119.34 12.18L118.34 12.18C118.30 12.18 118.29 10.60 118.29 9.58L118.29 8.65C118.29 8.57 118.29 8.54 118.38 8.54C118.78 8.54 119.10 8.58 119.60 8.58C121.59 8.58 122.99 7.83 122.99 6.01C122.99 4.09 121.51 3.22 119.59 3.22C119.27 3.22 118.17 3.29 117.75 3.29C117.52 3.29 116.33 3.26 116.10 3.26C115.92 3.26 115.85 3.28 115.85 3.51ZM118.30 8.05L118.30 4.40C118.30 4.05 118.31 3.70 118.36 3.68C118.48 3.67 118.65 3.67 118.79 3.67C120.44 3.67 121.70 4.47 121.70 5.80C121.70 7.57 120.37 8.19 118.79 8.19C118.54 8.19 118.30 8.16 118.30 8.05ZM130.68 8.15C130.68 11.17 133.01 12.80 135.27 12.80C138.05 12.80 140.03 10.89 140.03 8.06C140.03 5.33 138.28 3.11 135.48 3.11C132.87 3.11 130.68 5.10 130.68 8.15ZM132.08 7.77C132.08 5.64 133.36 3.58 135.34 3.58C137.58 3.58 138.66 5.81 138.66 7.94C138.66 10.08 137.55 12.32 135.28 12.32C133.29 12.32 132.08 10.28 132.08 7.77ZM148.13 12.39C148.13 12.63 148.16 12.68 148.36 12.68C148.68 12.68 149.65 12.64 150.07 12.64C150.49 12.64 154.84 12.68 155.16 12.68C155.43 12.68 155.50 12.66 155.51 12.49C155.57 12.08 155.81 10.72 155.81 10.60C155.81 10.47 155.65 10.44 155.48 10.43C155.39 10.42 155.30 10.46 155.29 10.56L155.12 11.76C155.08 12.05 155.06 12.03 154.84 12.04C154.69 12.05 152.18 12.12 150.75 12.12C150.71 12.12 150.67 11.38 150.67 10.54L150.67 6.66C150.67 5.40 150.68 3.70 150.78 3.70L151.76 3.70C152.00 3.70 152.03 3.63 152.03 3.44C152.03 3.23 152.01 3.19 151.77 3.19C151.45 3.19 150.51 3.23 150.09 3.23C149.67 3.23 148.74 3.19 148.51 3.19C148.29 3.19 148.23 3.22 148.23 3.44C148.23 3.65 148.27 3.70 148.47 3.70L149.30 3.70C149.34 3.70 149.37 4.23 149.37 4.90L149.37 8.13C149.37 10.07 149.34 12.18 149.25 12.18L148.41 12.18C148.19 12.18 148.13 12.21 148.13 12.39ZM163.28 12.39C163.28 12.63 163.32 12.68 163.52 12.68C163.84 12.68 164.60 12.64 165.31 12.64C165.97 12.64 166.77 12.68 166.99 12.68C167.16 12.68 167.19 12.61 167.19 12.40C167.19 12.24 167.16 12.18 166.99 12.18L166.03 12.18C165.93 12.18 165.90 9.55 165.90 7.76L165.90 5.87C165.90 5.14 165.93 3.70 166.03 3.70L166.94 3.70C167.16 3.70 167.19 3.68 167.19 3.49C167.19 3.25 167.16 3.19 166.99 3.19C166.67 3.19 166.00 3.23 165.34 3.23C164.53 3.23 163.81 3.19 163.59 3.19C163.41 3.19 163.34 3.21 163.34 3.44C163.34 3.68 163.42 3.70 163.59 3.70L164.51 3.70C164.56 3.70 164.63 4.79 164.63 5.71L164.63 7.08C164.63 8.92 164.61 12.18 164.50 12.18L163.58 12.18C163.35 12.18 163.28 12.19 163.28 12.39ZM175.15 7.91C175.15 11.31 177.52 12.87 180.11 12.87C181.89 12.87 183.67 11.90 183.71 11.59C183.88 10.29 183.93 9.70 183.93 9.66C183.93 9.56 183.89 9.52 183.72 9.51C183.67 9.51 183.61 9.49 183.57 9.49C183.46 9.49 183.40 9.53 183.37 9.70L183.19 11.33C183.18 11.45 182.07 12.24 180.50 12.24C178.37 12.24 176.67 10.29 176.67 7.94C176.67 5.42 178.09 3.54 180.10 3.54C181.94 3.54 183.29 5.01 183.29 5.17C183.29 5.29 183.23 6.40 183.23 6.45C183.23 6.59 183.27 6.64 183.54 6.64C183.74 6.64 183.81 6.62 183.81 6.44C183.81 5.73 183.86 3.92 183.86 3.67C183.86 3.47 183.75 3.44 183.54 3.44C183.32 3.44 183.29 3.50 183.29 3.67L183.29 4.05C183.29 4.16 183.25 4.16 183.12 4.06C182.84 3.86 181.86 3.04 180.19 3.04C177.35 3.04 175.15 4.96 175.15 7.91ZM191.90 3.44C191.90 3.68 191.98 3.70 192.15 3.70L192.56 3.70C192.68 3.70 194.94 7.74 195.34 8.50C195.40 8.60 195.44 8.65 195.44 8.81C195.44 10.50 195.43 12.18 195.30 12.18L194.59 12.18C194.36 12.18 194.32 12.19 194.32 12.39C194.32 12.63 194.33 12.68 194.53 12.68C194.73 12.68 195.54 12.64 196.13 12.64C196.95 12.64 197.48 12.68 197.81 12.68C197.97 12.68 198.00 12.61 198.00 12.40C198.00 12.24 197.97 12.18 197.81 12.18L196.84 12.18C196.74 12.18 196.71 9.72 196.71 8.22C196.71 8.18 196.71 8.15 196.76 8.09C197.30 7.22 199.25 3.70 199.32 3.70L199.79 3.70C199.96 3.70 200.06 3.68 200.06 3.44C200.06 3.22 199.98 3.19 199.79 3.19C199.57 3.19 199.33 3.23 198.73 3.23C198.14 3.23 197.81 3.19 197.64 3.19C197.44 3.19 197.40 3.25 197.40 3.49C197.40 3.68 197.47 3.70 197.69 3.70L198.42 3.70C198.44 3.70 198.45 3.71 198.45 3.74C198.45 4.05 196.88 6.99 196.50 7.71C196.39 7.92 196.39 7.88 196.28 7.67C195.87 6.89 194.59 4.56 194.29 3.85C194.24 3.71 194.22 3.70 194.40 3.70L195.23 3.70C195.45 3.70 195.48 3.68 195.48 3.49C195.48 3.25 195.44 3.19 195.29 3.19C195.05 3.19 194.43 3.23 193.63 3.23C192.82 3.23 192.33 3.19 192.15 3.19C191.97 3.19 191.90 3.21 191.90 3.44ZM217.48 3.49C217.48 3.72 217.59 3.74 217.76 3.74L218.37 3.74C218.43 3.74 218.50 4.79 218.50 5.71C218.50 5.80 218.55 8.27 218.55 9.83L218.55 11.17C218.55 11.84 218.54 12.18 218.48 12.18L217.90 12.18C217.67 12.18 217.60 12.19 217.60 12.39C217.60 12.63 217.62 12.68 217.81 12.68C218.02 12.68 218.86 12.64 219.28 12.64C219.70 12.64 220.64 12.68 220.96 12.68C221.13 12.68 221.16 12.61 221.16 12.40C221.16 12.24 221.13 12.18 220.96 12.18L219.83 12.18C219.77 12.18 219.79 10.16 219.74 8.33C219.74 8.08 219.73 8.09 219.93 8.09L222.35 8.09C223.05 8.09 223.08 8.19 223.08 8.30L223.08 9.16C223.08 9.28 223.26 9.28 223.37 9.28C223.47 9.28 223.59 9.28 223.59 9.17C223.59 8.99 223.57 8.33 223.57 7.83C223.57 7.32 223.59 6.82 223.59 6.69C223.59 6.58 223.48 6.58 223.36 6.58C223.19 6.58 223.08 6.58 223.08 6.71L223.08 7.45C223.08 7.62 222.63 7.63 222.35 7.63L219.93 7.63C219.72 7.63 219.74 7.66 219.74 7.45C219.73 7.13 219.72 6.15 219.72 5.26C219.72 4.52 219.73 3.71 219.80 3.71C221.20 3.71 223.38 3.75 223.68 3.79C223.68 3.96 223.64 4.82 223.64 4.89C223.64 5.04 223.71 5.10 223.89 5.10C224.08 5.10 224.15 5.08 224.15 4.94C224.15 3.85 224.21 3.36 224.21 3.09C224.21 2.93 224.13 2.90 223.93 2.90C223.80 2.90 223.73 2.90 223.71 3.11C223.69 3.25 223.76 3.25 222.81 3.25C222.21 3.25 219.93 3.29 219.18 3.29C218.69 3.29 217.76 3.25 217.66 3.25C217.53 3.25 217.48 3.30 217.48 3.49ZM232.25 8.15C232.25 11.17 234.58 12.80 236.84 12.80C239.62 12.80 241.60 10.89 241.60 8.06C241.60 5.33 239.85 3.11 237.05 3.11C234.44 3.11 232.25 5.10 232.25 8.15ZM233.65 7.77C233.65 5.64 234.93 3.58 236.91 3.58C239.15 3.58 240.23 5.81 240.23 7.94C240.23 10.08 239.12 12.32 236.85 12.32C234.86 12.32 233.65 10.28 233.65 7.77ZM249.70 3.51C249.70 3.72 249.77 3.79 249.97 3.79L250.78 3.77C250.88 3.77 250.92 6.61 250.92 8.55L250.92 10.42C250.92 11.30 250.91 12.18 250.87 12.18L250.26 12.18C250.04 12.18 249.97 12.19 249.97 12.39C249.97 12.63 250.01 12.68 250.21 12.68C250.33 12.68 251.16 12.64 251.58 12.64C252.00 12.64 252.77 12.68 253.09 12.68C253.26 12.68 253.29 12.61 253.29 12.40C253.29 12.24 253.26 12.18 253.09 12.18L252.28 12.18C252.21 12.18 252.13 9.18 252.13 8.37C252.13 8.30 252.13 8.26 252.24 8.26C252.63 8.26 253.23 8.27 253.53 8.27C255.77 8.32 255.91 10.00 255.91 11.68L255.91 12.49C255.91 12.61 255.96 12.64 256.06 12.64C256.06 12.64 257.50 12.68 257.98 12.68C258.15 12.68 258.20 12.64 258.20 12.53C258.20 12.24 258.15 12.18 257.99 12.18L257.35 12.18C257.25 12.18 257.22 12.14 257.19 11.31C257.11 8.99 255.74 8.34 254.83 8.05C254.69 8.01 254.72 8.01 254.83 7.95C255.42 7.69 256.73 6.94 256.73 5.63C256.73 3.63 255.04 3.21 253.64 3.21C253.32 3.21 252.03 3.29 251.61 3.29C251.19 3.29 250.21 3.26 249.98 3.26C249.80 3.26 249.70 3.28 249.70 3.51ZM252.13 7.80L252.13 4.40C252.13 4.05 252.15 3.68 252.20 3.68C252.41 3.65 252.69 3.65 252.91 3.65C254.21 3.65 255.46 4.47 255.46 5.82C255.46 6.99 254.91 7.57 254.25 7.88C254.21 7.90 254.17 7.90 254.10 7.90C253.62 7.88 252.91 7.88 252.31 7.87C252.14 7.87 252.13 7.85 252.13 7.80ZM275.34 12.39C275.34 12.63 275.34 12.68 275.53 12.68C275.70 12.68 276.02 12.64 276.60 12.64C277.21 12.64 277.76 12.68 277.91 12.68C278.08 12.68 278.08 12.61 278.08 12.40C278.08 12.24 278.08 12.18 277.91 12.18L276.84 12.18C276.84 12.18 276.82 12.18 276.82 12.17C276.84 11.87 277.61 9.90 277.96 9.02C278.03 8.83 278.04 8.79 278.25 8.79L281.08 8.79C281.22 8.79 281.22 8.81 281.29 9.03C281.55 9.77 282.27 11.89 282.27 12.17C282.27 12.18 282.25 12.18 282.25 12.18L281.48 12.18C281.26 12.18 281.25 12.19 281.25 12.39C281.25 12.63 281.26 12.68 281.43 12.68C281.75 12.68 282.62 12.64 283.04 12.64C283.46 12.64 284.13 12.68 284.34 12.68C284.48 12.68 284.49 12.61 284.49 12.40C284.49 12.24 284.48 12.18 284.34 12.18L283.85 12.18C283.75 12.18 282.73 9.34 282.17 7.78L280.49 3.07C280.48 3.00 280.41 2.94 280.32 2.94C280.20 2.94 280.10 3.16 280.01 3.35C279.86 3.71 279.62 3.84 279.51 4.13L278.03 7.57C277.84 8.01 276.14 12.18 276.01 12.18L275.59 12.18C275.37 12.18 275.34 12.19 275.34 12.39ZM278.24 8.33C278.24 8.30 278.26 8.23 278.31 8.13L279.68 4.77C279.72 4.66 279.75 4.61 279.78 4.61C279.79 4.61 279.80 4.63 279.85 4.77L281.01 8.18C281.04 8.25 281.05 8.29 281.05 8.32C281.05 8.36 281.02 8.37 280.92 8.37L278.42 8.37C278.24 8.37 278.24 8.34 278.24 8.33ZM301.98 12.46C301.98 12.63 301.99 12.70 302.18 12.70C302.33 12.70 303.56 12.64 303.95 12.64C304.81 12.64 305.69 12.70 306.54 12.70C309.16 12.70 311.56 11.07 311.56 7.91C311.56 4.89 309.22 3.07 306.18 3.07C305.62 3.07 304.36 3.23 303.32 3.23C302.85 3.23 302.39 3.22 302.33 3.22C302.15 3.22 302.13 3.32 302.13 3.49C302.13 3.68 302.20 3.70 302.33 3.70L303.30 3.67C303.32 3.67 303.32 4.20 303.32 4.72C303.32 5.91 303.24 12.21 303.16 12.21L302.26 12.21C302.08 12.21 301.98 12.22 301.98 12.46ZM304.56 11.40C304.56 9.46 304.56 7.52 304.57 5.60C304.57 5.03 304.61 3.61 304.65 3.60C304.95 3.53 305.54 3.51 305.89 3.51C308.45 3.51 310.06 5.75 310.06 7.73C310.06 8.95 310.02 12.25 305.34 12.25C305.07 12.25 304.67 12.25 304.57 12.21C304.56 12.19 304.56 11.79 304.56 11.40ZM319.52 12.39C319.52 12.63 319.56 12.68 319.76 12.68C320.08 12.68 320.84 12.64 321.55 12.64C322.21 12.64 323.01 12.68 323.23 12.68C323.40 12.68 323.43 12.61 323.43 12.40C323.43 12.24 323.40 12.18 323.23 12.18L322.27 12.18C322.17 12.18 322.14 9.55 322.14 7.76L322.14 5.87C322.14 5.14 322.17 3.70 322.27 3.70L323.18 3.70C323.40 3.70 323.43 3.68 323.43 3.49C323.43 3.25 323.40 3.19 323.23 3.19C322.91 3.19 322.24 3.23 321.58 3.23C320.77 3.23 320.05 3.19 319.83 3.19C319.65 3.19 319.58 3.21 319.58 3.44C319.58 3.68 319.66 3.70 319.83 3.70L320.75 3.70C320.80 3.70 320.87 4.79 320.87 5.71L320.87 7.08C320.87 8.92 320.85 12.18 320.74 12.18L319.82 12.18C319.59 12.18 319.52 12.19 319.52 12.39ZM331.39 7.91C331.39 11.40 333.76 12.89 336.35 12.89C338.24 12.89 340.24 11.89 340.24 11.58C340.24 11.12 340.26 10.68 340.26 10.33C340.26 9.81 340.27 9.56 340.40 9.56L340.83 9.56C340.97 9.56 340.98 9.39 340.98 9.30C340.98 9.18 340.97 9.06 340.83 9.06C340.61 9.06 340.24 9.10 339.57 9.10C339.12 9.10 338.38 9.07 337.69 9.06C337.55 9.06 337.55 9.24 337.55 9.35C337.55 9.45 337.58 9.56 337.71 9.56L338.93 9.56C338.97 9.56 339.02 9.87 339.02 10.33C339.02 10.82 339.01 11.41 338.98 11.65C338.97 11.76 338.32 12.39 336.74 12.39C334.50 12.39 332.91 10.29 332.91 7.94C332.91 5.42 334.46 3.54 336.46 3.54C338.35 3.54 339.53 4.87 339.53 5.03C339.53 5.15 339.47 6.12 339.47 6.17C339.47 6.31 339.51 6.36 339.78 6.36C339.98 6.36 340.05 6.33 340.05 6.15C340.05 5.43 340.09 3.75 340.09 3.56C340.09 3.36 339.99 3.33 339.78 3.33C339.56 3.33 339.53 3.39 339.53 3.56L339.53 3.91C339.53 3.99 339.49 4.02 339.36 3.92C339.08 3.72 338.09 3.08 336.52 3.08C333.68 3.08 331.39 4.79 331.39 7.91ZM348.88 12.39C348.88 12.63 348.92 12.68 349.12 12.68C349.44 12.68 350.20 12.64 350.91 12.64C351.57 12.64 352.37 12.68 352.59 12.68C352.76 12.68 352.79 12.61 352.79 12.40C352.79 12.24 352.76 12.18 352.59 12.18L351.62 12.18C351.53 12.18 351.50 9.55 351.50 7.76L351.50 5.87C351.50 5.14 351.53 3.70 351.62 3.70L352.53 3.70C352.76 3.70 352.79 3.68 352.79 3.49C352.79 3.25 352.76 3.19 352.59 3.19C352.27 3.19 351.60 3.23 350.94 3.23C350.13 3.23 349.41 3.19 349.19 3.19C349.01 3.19 348.94 3.21 348.94 3.44C348.94 3.68 349.02 3.70 349.19 3.70L350.11 3.70C350.15 3.70 350.22 4.79 350.22 5.71L350.22 7.08C350.22 8.92 350.21 12.18 350.10 12.18L349.17 12.18C348.95 12.18 348.88 12.19 348.88 12.39ZM360.42 5.01C360.42 5.17 360.60 5.17 360.72 5.17C360.88 5.17 360.92 5.15 360.93 4.97L361.05 3.89C361.06 3.81 361.61 3.75 362.36 3.75L364.35 3.75C364.41 3.75 364.43 4.35 364.43 4.97C364.43 6.43 364.38 12.18 364.25 12.18L363.38 12.18C363.16 12.18 363.12 12.19 363.12 12.39C363.12 12.63 363.13 12.68 363.33 12.68C363.65 12.68 364.63 12.64 365.05 12.64C365.47 12.64 366.41 12.68 366.73 12.68C366.90 12.68 366.93 12.61 366.93 12.40C366.93 12.24 366.90 12.18 366.73 12.18L365.74 12.18C365.71 12.18 365.71 11.76 365.71 11.31C365.71 9.56 365.79 5.96 365.79 5.92C365.81 5.18 365.81 3.75 365.90 3.75L367.51 3.75C368.23 3.75 369.05 3.78 369.05 3.85C369.05 3.99 369.01 4.90 369.01 4.97C369.01 5.12 369.08 5.17 369.26 5.17C369.46 5.17 369.53 5.17 369.53 5.03C369.53 3.93 369.59 3.40 369.59 3.14C369.59 2.94 369.50 2.94 369.31 2.94C369.15 2.94 369.10 2.98 369.08 3.16C369.08 3.23 368.44 3.28 367.60 3.28L362.60 3.28C361.94 3.28 361.13 3.28 361.13 3.21L361.13 3.07C361.13 2.94 361.00 2.94 360.91 2.94C360.68 2.94 360.65 3.00 360.64 3.19C360.58 3.89 360.42 4.97 360.42 5.01ZM375.38 12.39C375.38 12.63 375.38 12.68 375.58 12.68C375.75 12.68 376.07 12.64 376.64 12.64C377.26 12.64 377.80 12.68 377.96 12.68C378.13 12.68 378.13 12.61 378.13 12.40C378.13 12.24 378.13 12.18 377.96 12.18L376.88 12.18C376.88 12.18 376.87 12.18 376.87 12.17C376.88 11.87 377.65 9.90 378.00 9.02C378.07 8.83 378.08 8.79 378.29 8.79L381.12 8.79C381.26 8.79 381.26 8.81 381.33 9.03C381.60 9.77 382.31 11.89 382.31 12.17C382.31 12.18 382.30 12.18 382.30 12.18L381.53 12.18C381.30 12.18 381.29 12.19 381.29 12.39C381.29 12.63 381.30 12.68 381.47 12.68C381.79 12.68 382.66 12.64 383.08 12.64C383.50 12.64 384.17 12.68 384.38 12.68C384.52 12.68 384.54 12.61 384.54 12.40C384.54 12.24 384.52 12.18 384.38 12.18L383.89 12.18C383.80 12.18 382.77 9.34 382.21 7.78L380.53 3.07C380.52 3.00 380.45 2.94 380.37 2.94C380.24 2.94 380.14 3.16 380.06 3.35C379.90 3.71 379.67 3.84 379.55 4.13L378.07 7.57C377.89 8.01 376.18 12.18 376.05 12.18L375.63 12.18C375.41 12.18 375.38 12.19 375.38 12.39ZM378.28 8.33C378.28 8.30 378.31 8.23 378.35 8.13L379.72 4.77C379.76 4.66 379.79 4.61 379.82 4.61C379.83 4.61 379.85 4.63 379.89 4.77L381.05 8.18C381.08 8.25 381.09 8.29 381.09 8.32C381.09 8.36 381.07 8.37 380.97 8.37L378.46 8.37C378.28 8.37 378.28 8.34 378.28 8.33ZM392.29 12.39C392.29 12.63 392.32 12.68 392.52 12.68C392.84 12.68 393.81 12.64 394.23 12.64C394.65 12.64 399.00 12.68 399.32 12.68C399.59 12.68 399.66 12.66 399.67 12.49C399.73 12.08 399.97 10.72 399.97 10.60C399.97 10.47 399.81 10.44 399.64 10.43C399.55 10.42 399.46 10.46 399.45 10.56L399.28 11.76C399.24 12.05 399.22 12.03 399.00 12.04C398.85 12.05 396.34 12.12 394.91 12.12C394.87 12.12 394.83 11.38 394.83 10.54L394.83 6.66C394.83 5.40 394.84 3.70 394.94 3.70L395.92 3.70C396.16 3.70 396.19 3.63 396.19 3.44C396.19 3.23 396.17 3.19 395.93 3.19C395.61 3.19 394.67 3.23 394.25 3.23C393.83 3.23 392.90 3.19 392.67 3.19C392.45 3.19 392.39 3.22 392.39 3.44C392.39 3.65 392.43 3.70 392.63 3.70L393.46 3.70C393.50 3.70 393.53 4.23 393.53 4.90L393.53 8.13C393.53 10.07 393.50 12.18 393.41 12.18L392.57 12.18C392.35 12.18 392.29 12.21 392.29 12.39ZM417.38 3.51C417.38 3.75 417.47 3.79 417.63 3.79L418.49 3.77C418.54 3.77 418.60 5.52 418.60 7.11L418.60 11.63C418.60 11.93 418.59 12.18 418.56 12.18L417.83 12.18C417.61 12.18 417.54 12.19 417.54 12.39C417.54 12.63 417.56 12.68 417.76 12.68C417.89 12.68 418.84 12.64 419.26 12.64C419.44 12.64 419.96 12.67 420.60 12.67C422.16 12.67 424.56 12.43 424.56 10.23C424.56 8.27 422.74 7.94 422.06 7.84C421.97 7.83 421.96 7.83 421.96 7.81C421.96 7.80 422.00 7.78 422.07 7.76C422.72 7.52 424.16 6.90 424.16 5.54C424.16 3.81 422.69 3.25 421.01 3.25C420.43 3.25 419.83 3.29 419.29 3.29C418.87 3.29 417.86 3.26 417.63 3.26C417.45 3.26 417.38 3.28 417.38 3.51ZM419.83 8.19C419.83 8.12 419.83 8.08 419.94 8.08L420.42 8.08C421.04 8.08 421.68 8.09 422.06 8.22C422.93 8.51 423.25 9.16 423.25 10.14C423.25 11.17 422.79 12.18 420.77 12.18L419.93 12.18C419.85 12.18 419.83 9.02 419.83 8.19ZM419.83 7.59L419.83 6.92C419.83 5.87 419.85 3.71 419.89 3.68C419.94 3.65 420.25 3.63 420.46 3.63C421.88 3.63 422.90 4.41 422.90 5.77C422.90 6.92 422.17 7.46 421.54 7.66C421.46 7.69 421.36 7.70 421.27 7.70C421.19 7.70 421.05 7.69 420.81 7.69L420.01 7.69C419.83 7.69 419.83 7.67 419.83 7.59ZM432.67 3.51C432.67 3.72 432.74 3.79 432.94 3.79L433.75 3.77C433.85 3.77 433.89 6.61 433.89 8.55L433.89 10.42C433.89 11.30 433.87 12.18 433.83 12.18L433.23 12.18C433.01 12.18 432.94 12.19 432.94 12.39C432.94 12.63 432.98 12.68 433.17 12.68C433.30 12.68 434.13 12.64 434.55 12.64C434.97 12.64 435.74 12.68 436.06 12.68C436.23 12.68 436.25 12.61 436.25 12.40C436.25 12.24 436.23 12.18 436.06 12.18L435.25 12.18C435.18 12.18 435.09 9.18 435.09 8.37C435.09 8.30 435.09 8.26 435.20 8.26C435.60 8.26 436.20 8.27 436.49 8.27C438.73 8.32 438.87 10.00 438.87 11.68L438.87 12.49C438.87 12.61 438.93 12.64 439.03 12.64C439.03 12.64 440.47 12.68 440.94 12.68C441.11 12.68 441.17 12.64 441.17 12.53C441.17 12.24 441.11 12.18 440.96 12.18L440.31 12.18C440.22 12.18 440.19 12.14 440.16 11.31C440.08 8.99 438.70 8.34 437.79 8.05C437.65 8.01 437.68 8.01 437.79 7.95C438.38 7.69 439.70 6.94 439.70 5.63C439.70 3.63 438.00 3.21 436.60 3.21C436.28 3.21 434.99 3.29 434.57 3.29C434.15 3.29 433.17 3.26 432.95 3.26C432.77 3.26 432.67 3.28 432.67 3.51ZM435.09 7.80L435.09 4.40C435.09 4.05 435.12 3.68 435.16 3.68C435.37 3.65 435.65 3.65 435.88 3.65C437.18 3.65 438.42 4.47 438.42 5.82C438.42 6.99 437.88 7.57 437.22 7.88C437.18 7.90 437.14 7.90 437.07 7.90C436.59 7.88 435.88 7.88 435.27 7.87C435.11 7.87 435.09 7.85 435.09 7.80ZM448.50 12.39C448.50 12.63 448.55 12.68 448.74 12.68C449.06 12.68 449.82 12.64 450.53 12.64C451.19 12.64 451.99 12.68 452.21 12.68C452.38 12.68 452.41 12.61 452.41 12.40C452.41 12.24 452.38 12.18 452.21 12.18L451.25 12.18C451.15 12.18 451.12 9.55 451.12 7.76L451.12 5.87C451.12 5.14 451.15 3.70 451.25 3.70L452.16 3.70C452.38 3.70 452.41 3.68 452.41 3.49C452.41 3.25 452.38 3.19 452.21 3.19C451.89 3.19 451.22 3.23 450.56 3.23C449.75 3.23 449.04 3.19 448.81 3.19C448.63 3.19 448.56 3.21 448.56 3.44C448.56 3.68 448.64 3.70 448.81 3.70L449.74 3.70C449.78 3.70 449.85 4.79 449.85 5.71L449.85 7.08C449.85 8.92 449.83 12.18 449.72 12.18L448.80 12.18C448.57 12.18 448.50 12.19 448.50 12.39ZM460.04 5.01C460.04 5.17 460.22 5.17 460.35 5.17C460.50 5.17 460.54 5.15 460.56 4.97L460.67 3.89C460.68 3.81 461.23 3.75 461.99 3.75L463.97 3.75C464.03 3.75 464.06 4.35 464.06 4.97C464.06 6.43 464.00 12.18 463.88 12.18L463.01 12.18C462.78 12.18 462.74 12.19 462.74 12.39C462.74 12.63 462.76 12.68 462.95 12.68C463.27 12.68 464.25 12.64 464.67 12.64C465.09 12.64 466.03 12.68 466.35 12.68C466.52 12.68 466.55 12.61 466.55 12.40C466.55 12.24 466.52 12.18 466.35 12.18L465.36 12.18C465.33 12.18 465.33 11.76 465.33 11.31C465.33 9.56 465.42 5.96 465.42 5.92C465.43 5.18 465.43 3.75 465.53 3.75L467.14 3.75C467.85 3.75 468.68 3.78 468.68 3.85C468.68 3.99 468.64 4.90 468.64 4.97C468.64 5.12 468.71 5.17 468.89 5.17C469.08 5.17 469.15 5.17 469.15 5.03C469.15 3.93 469.21 3.40 469.21 3.14C469.21 2.94 469.13 2.94 468.93 2.94C468.78 2.94 468.72 2.98 468.71 3.16C468.71 3.23 468.06 3.28 467.22 3.28L462.22 3.28C461.57 3.28 460.75 3.28 460.75 3.21L460.75 3.07C460.75 2.94 460.63 2.94 460.53 2.94C460.31 2.94 460.28 3.00 460.26 3.19C460.21 3.89 460.04 4.97 460.04 5.01ZM475.01 12.39C475.01 12.63 475.01 12.68 475.20 12.68C475.37 12.68 475.69 12.64 476.27 12.64C476.88 12.64 477.43 12.68 477.58 12.68C477.75 12.68 477.75 12.61 477.75 12.40C477.75 12.24 477.75 12.18 477.58 12.18L476.50 12.18C476.50 12.18 476.49 12.18 476.49 12.17C476.50 11.87 477.27 9.90 477.62 9.02C477.69 8.83 477.71 8.79 477.92 8.79L480.75 8.79C480.89 8.79 480.89 8.81 480.96 9.03C481.22 9.77 481.94 11.89 481.94 12.17C481.94 12.18 481.92 12.18 481.92 12.18L481.15 12.18C480.93 12.18 480.91 12.19 480.91 12.39C480.91 12.63 480.93 12.68 481.10 12.68C481.42 12.68 482.29 12.64 482.71 12.64C483.13 12.64 483.80 12.68 484.01 12.68C484.15 12.68 484.16 12.61 484.16 12.40C484.16 12.24 484.15 12.18 484.01 12.18L483.52 12.18C483.42 12.18 482.40 9.34 481.84 7.78L480.16 3.07C480.14 3.00 480.07 2.94 479.99 2.94C479.86 2.94 479.77 3.16 479.68 3.35C479.53 3.71 479.29 3.84 479.18 4.13L477.69 7.57C477.51 8.01 475.80 12.18 475.68 12.18L475.26 12.18C475.03 12.18 475.01 12.19 475.01 12.39ZM477.90 8.33C477.90 8.30 477.93 8.23 477.97 8.13L479.35 4.77C479.39 4.66 479.42 4.61 479.44 4.61C479.46 4.61 479.47 4.63 479.51 4.77L480.68 8.18C480.70 8.25 480.72 8.29 480.72 8.32C480.72 8.36 480.69 8.37 480.59 8.37L478.09 8.37C477.90 8.37 477.90 8.34 477.90 8.33ZM491.78 12.39C491.78 12.63 491.82 12.68 492.02 12.68C492.34 12.68 493.09 12.64 493.81 12.64C494.47 12.64 495.26 12.68 495.49 12.68C495.66 12.68 495.68 12.61 495.68 12.40C495.68 12.24 495.66 12.18 495.49 12.18L494.52 12.18C494.42 12.18 494.40 9.55 494.40 7.76L494.40 5.87C494.40 5.14 494.42 3.70 494.52 3.70L495.43 3.70C495.66 3.70 495.68 3.68 495.68 3.49C495.68 3.25 495.66 3.19 495.49 3.19C495.17 3.19 494.49 3.23 493.84 3.23C493.02 3.23 492.31 3.19 492.09 3.19C491.90 3.19 491.83 3.21 491.83 3.44C491.83 3.68 491.92 3.70 492.09 3.70L493.01 3.70C493.05 3.70 493.12 4.79 493.12 5.71L493.12 7.08C493.12 8.92 493.11 12.18 493.00 12.18L492.07 12.18C491.85 12.18 491.78 12.19 491.78 12.39ZM503.58 12.39C503.58 12.63 503.59 12.68 503.79 12.68C503.97 12.68 504.35 12.64 504.97 12.64C505.60 12.64 506.16 12.68 506.48 12.68C506.65 12.68 506.65 12.61 506.65 12.40C506.65 12.24 506.65 12.18 506.48 12.18L505.27 12.18C505.23 12.18 505.22 11.54 505.22 10.79C505.22 9.46 505.23 7.48 505.23 5.99C505.23 5.25 505.23 4.84 505.25 4.28C505.25 4.02 505.32 4.14 505.44 4.28L512.33 12.66C512.41 12.75 512.50 12.89 512.61 12.89C512.72 12.89 512.79 12.77 512.79 12.54C512.79 12.39 512.96 6.65 512.97 4.48C512.97 4.06 513.00 3.70 513.03 3.70L513.66 3.70C513.88 3.70 513.94 3.68 513.94 3.49C513.94 3.25 513.94 3.19 513.74 3.19C513.55 3.19 513.11 3.23 512.55 3.23C511.94 3.23 511.14 3.19 511.04 3.19C510.87 3.19 510.87 3.26 510.87 3.47C510.87 3.64 510.87 3.70 511.04 3.70L512.34 3.70C512.36 3.70 512.36 4.33 512.36 4.44C512.36 5.85 512.39 8.33 512.39 9.70L512.39 10.29C512.39 10.57 512.37 10.65 512.15 10.37L506.46 3.39C506.35 3.25 506.32 3.19 506.16 3.19C506.07 3.19 505.69 3.23 505.39 3.23C505.09 3.23 504.01 3.19 503.82 3.19C503.65 3.19 503.62 3.26 503.62 3.47C503.62 3.64 503.65 3.70 503.82 3.70L504.73 3.70C504.73 4.17 504.69 8.53 504.62 10.79C504.59 11.69 504.60 12.18 504.49 12.18L503.85 12.18C503.62 12.18 503.58 12.19 503.58 12.39Z"></path></g></svg>