<svg data-v-423bf9ae="" xmlns="http://www.w3.org/2000/svg" viewBox="0 0 1098.5206504058642 60" class="font"><!----><!----><!----><g data-v-423bf9ae="" id="c92dd116-2946-4a2f-b1c2-72e1646bf67c" fill="white" transform="matrix(4.267425192696808,0,0,4.267425192696808,-1.194872839883942,0.4267424287710959)"><path d="M1.44 1.47L3.71 1.47L3.71 9.60L2.38 10.01L2.38 10.50L6.30 10.50L6.44 9.87L5.11 9.60L5.11 1.47L7.34 1.47L7.80 3.49L8.50 3.35L8.50 0.70L0.28 0.70L0.28 3.35L0.98 3.49ZM11.55 0L9.06 0.34L9.13 0.91L10.29 1.13L10.29 9.66L9.06 10.08L9.06 10.50L12.46 10.50L12.60 9.83L11.55 9.63L11.55 4.96C11.91 4.52 12.75 4.24 13.50 4.24C14.39 4.24 14.84 4.55 14.84 5.95L14.84 9.66L13.76 10.08L13.76 10.50L17.08 10.50L17.22 9.87L16.10 9.63L16.09 5.67C16.09 3.88 15.32 3.09 13.97 3.09C13.20 3.09 12.18 3.50 11.55 4.27ZM24.36 6.75C24.36 5.00 23.86 3.11 21.36 3.11C19.75 3.11 17.99 4.35 17.99 6.83C17.99 9.25 19.56 10.63 21.41 10.63C22.34 10.63 23.34 10.28 24.25 9.56L23.94 9.03C23.23 9.49 22.54 9.72 21.88 9.72C20.47 9.72 19.39 8.60 19.39 6.75ZM19.43 5.99C19.47 4.62 20.44 3.86 21.32 3.86C22.16 3.86 22.96 4.52 22.96 5.99ZM34.44 1.19L34.44 0.70L30.52 0.70L30.38 1.33L31.71 1.60L31.71 9.60L30.38 10.01L30.38 10.50L34.30 10.50L34.44 9.87L33.11 9.60L33.11 1.60ZM42.45 5.67C42.41 3.88 41.66 3.09 40.32 3.09C39.55 3.09 38.53 3.50 37.90 4.27L37.90 3.12L35.42 3.46L35.49 4.07L36.65 4.30L36.65 9.66L35.43 10.08L35.43 10.50L38.82 10.50L38.96 9.83L37.90 9.63L37.90 4.96C38.26 4.52 39.10 4.24 39.84 4.24C40.74 4.24 41.19 4.55 41.19 5.95L41.19 9.66L40.11 10.08L40.11 10.50L43.43 10.50L43.57 9.87L42.45 9.63ZM44.44 10.16C45.04 10.43 45.95 10.64 46.86 10.64C48.27 10.64 49.63 10.12 49.63 8.47C49.63 6.22 45.88 6.59 45.88 4.90C45.88 4.12 46.52 3.89 47.24 3.89C47.68 3.89 47.88 3.93 48.20 4.03L48.58 5.46L49.31 5.33L49.31 3.58C49.03 3.30 48.30 3.12 47.50 3.12C46.14 3.12 44.58 3.65 44.58 5.11C44.58 7.46 48.37 7.06 48.31 8.68C48.30 9.52 47.71 9.87 46.87 9.87C46.33 9.87 46.03 9.76 45.54 9.55L45.16 8.16L44.44 8.29ZM55.24 9.20C54.67 9.55 54.25 9.69 53.82 9.69C53.10 9.69 53.00 9.38 53.00 8.36L53.00 4.24L55.24 4.24L55.24 3.47L53.00 3.47L53.00 1.79L52.30 1.79L51.81 3.33L50.64 3.75L50.64 4.24L51.74 4.24L51.74 8.69C51.74 9.83 52.09 10.67 53.33 10.67C54.17 10.67 55.08 10.21 55.51 9.53ZM58.70 3.12L56.24 3.46L56.31 4.03L57.44 4.24L57.44 9.66L56.21 10.08L56.21 10.50L59.61 10.50L59.75 9.83L58.70 9.63ZM56.98 1.08C57.19 1.47 57.53 1.81 57.92 2.02C58.32 1.78 58.66 1.46 58.90 1.05C58.69 0.64 58.37 0.32 57.96 0.11C57.54 0.35 57.22 0.67 56.98 1.08ZM65.13 9.20C64.55 9.55 64.13 9.69 63.70 9.69C62.99 9.69 62.89 9.38 62.89 8.36L62.89 4.24L65.13 4.24L65.13 3.47L62.89 3.47L62.89 1.79L62.19 1.79L61.70 3.33L60.52 3.75L60.52 4.24L61.63 4.24L61.63 8.69C61.63 9.83 61.98 10.67 63.21 10.67C64.05 10.67 64.96 10.21 65.39 9.53ZM67.14 8.04C67.16 9.83 67.93 10.61 69.27 10.61C70.04 10.61 71.06 10.21 71.69 9.44L71.69 10.50L73.92 10.50L74.07 9.88L72.94 9.63L72.94 3.21L70.77 3.21L70.63 3.88L71.69 4.07L71.69 8.75C71.33 9.18 70.49 9.46 69.75 9.46C68.85 9.46 68.40 9.16 68.40 7.76L68.40 3.21L66.16 3.21L66.02 3.84L67.14 4.07ZM79.55 9.20C78.97 9.55 78.55 9.69 78.12 9.69C77.41 9.69 77.31 9.38 77.31 8.36L77.31 4.24L79.55 4.24L79.55 3.47L77.31 3.47L77.31 1.79L76.61 1.79L76.12 3.33L74.94 3.75L74.94 4.24L76.05 4.24L76.05 8.69C76.05 9.83 76.40 10.67 77.63 10.67C78.47 10.67 79.38 10.21 79.81 9.53ZM86.95 6.75C86.95 5.00 86.45 3.11 83.96 3.11C82.35 3.11 80.58 4.35 80.58 6.83C80.58 9.25 82.15 10.63 84 10.63C84.94 10.63 85.93 10.28 86.84 9.56L86.53 9.03C85.82 9.49 85.13 9.72 84.48 9.72C83.06 9.72 81.98 8.60 81.98 6.75ZM82.03 5.99C82.07 4.62 83.03 3.86 83.92 3.86C84.76 3.86 85.55 4.52 85.55 5.99ZM96.67-0.10C95.48-0.10 94.21 0.57 94.21 2.44L94.19 3.47L92.97 3.47L92.97 4.24L94.19 4.24L94.19 9.66L92.97 10.08L92.97 10.50L96.87 10.50L97.01 9.83L95.45 9.63L95.45 4.24L97.31 4.24L97.31 3.47L95.45 3.47L95.45 2.45C95.45 1.09 95.83 0.67 96.67 0.67C96.89 0.67 97.19 0.73 97.41 0.84L97.80 2.38L98.50 2.24L98.50 0.38C97.96 0.06 97.22-0.10 96.67-0.10ZM101.85 9.84C100.10 9.84 99.55 8.27 99.55 6.73C99.55 5.28 100.16 3.85 101.65 3.85C103.40 3.85 103.95 5.42 103.95 6.96C103.95 8.41 103.35 9.84 101.85 9.84ZM101.64 3.08C99.40 3.08 98.15 5.00 98.15 6.89C98.15 8.76 99.34 10.61 101.86 10.61C104.10 10.61 105.35 8.69 105.35 6.80C105.35 4.93 104.16 3.08 101.64 3.08ZM111.97 3.32C111.68 3.19 111.37 3.12 111.05 3.12C110.22 3.12 109.51 3.60 108.88 4.27L108.88 3.12L106.40 3.46L106.47 4.07L107.63 4.30L107.63 9.66L106.41 10.08L106.41 10.50L110.03 10.50L110.17 9.83L108.88 9.63L108.88 4.96C109.26 4.52 109.98 4.24 110.59 4.24C110.66 4.24 110.80 4.24 110.87 4.26L111.24 5.32L111.97 5.19ZM126.52 5.63C126.52 2.94 124.88 0.70 121.63 0.70L117.64 0.70L117.50 1.33L118.83 1.60L118.83 9.60L117.50 10.01L117.50 10.50L121.63 10.50C124.77 10.50 126.52 8.32 126.52 5.63ZM121.39 1.47C123.97 1.47 125.05 3.11 125.05 5.63C125.05 8.15 123.70 9.73 121.39 9.73L120.23 9.73L120.23 1.47ZM130.13 3.12L127.67 3.46L127.74 4.03L128.87 4.24L128.87 9.66L127.64 10.08L127.64 10.50L131.04 10.50L131.18 9.83L130.13 9.63ZM128.41 1.08C128.62 1.47 128.95 1.81 129.35 2.02C129.75 1.78 130.09 1.46 130.33 1.05C130.12 0.64 129.79 0.32 129.39 0.11C128.97 0.35 128.65 0.67 128.41 1.08ZM135.25 8.25C136.65 8.25 138.01 7.62 138.01 5.75C138.01 5.25 137.93 4.82 137.75 4.44L139.50 4.48L139.50 3.51C139.15 3.54 138.81 3.57 138.50 3.58C137.96 3.63 137.38 3.65 137.12 3.65C136.63 3.26 135.97 3.08 135.24 3.08C133.70 3.08 132.27 3.86 132.27 5.75C132.27 6.87 132.85 7.53 133.67 7.91C133.04 8.29 132.68 8.85 132.68 9.34C132.68 9.77 132.86 10.14 133.24 10.40C132.50 10.89 132.02 11.38 132.02 12.10C132.02 13.37 133.13 13.96 134.81 13.96C136.78 13.96 138.99 12.92 138.99 11.12C138.99 10.33 138.52 9.69 137.33 9.65L134.69 9.65C134.08 9.63 133.78 9.39 133.78 9.07C133.78 8.72 134.04 8.39 134.36 8.15C134.65 8.22 134.96 8.25 135.25 8.25ZM135.28 7.48C134.13 7.48 133.67 6.72 133.67 5.71C133.67 4.66 134.16 3.82 135.14 3.82C136.15 3.82 136.61 4.70 136.61 5.75C136.61 6.76 136.22 7.48 135.28 7.48ZM136.65 10.84C137.73 10.84 138.04 11.06 138.04 11.61C138.04 12.43 136.72 13.15 135.41 13.15C134.18 13.15 133.31 12.80 133.31 11.72C133.31 11.37 133.46 11.02 133.77 10.65C134.12 10.78 134.53 10.84 134.99 10.84ZM142.69 3.12L140.22 3.46L140.29 4.03L141.43 4.24L141.43 9.66L140.20 10.08L140.20 10.50L143.60 10.50L143.74 9.83L142.69 9.63ZM140.97 1.08C141.18 1.47 141.51 1.81 141.90 2.02C142.31 1.78 142.65 1.46 142.88 1.05C142.67 0.64 142.35 0.32 141.95 0.11C141.53 0.35 141.20 0.67 140.97 1.08ZM149.11 9.20C148.54 9.55 148.12 9.69 147.69 9.69C146.97 9.69 146.87 9.38 146.87 8.36L146.87 4.24L149.11 4.24L149.11 3.47L146.87 3.47L146.87 1.79L146.17 1.79L145.68 3.33L144.51 3.75L144.51 4.24L145.61 4.24L145.61 8.69C145.61 9.83 145.96 10.67 147.20 10.67C148.04 10.67 148.95 10.21 149.38 9.53ZM156.69 10.50L156.83 9.86L155.82 9.62L155.82 5.32C155.82 3.64 154.66 3.09 153.20 3.09C152.25 3.09 151.42 3.39 150.70 3.71L150.70 5.53L151.42 5.66L151.82 4.06C152.25 3.91 152.70 3.86 153.13 3.86C153.92 3.86 154.56 4.26 154.56 5.31L154.56 6.45C153.55 6.57 152.75 6.72 151.84 6.96C150.63 7.28 150.22 7.84 150.22 8.78C150.22 9.95 151.09 10.61 152.08 10.61C152.89 10.61 154 10.04 154.56 9.37L154.56 10.50ZM151.62 8.67C151.62 8.09 151.89 7.59 152.77 7.35C153.37 7.18 153.96 7.11 154.56 7.04L154.56 8.64C154.22 9.13 153.34 9.73 152.67 9.73C152.11 9.73 151.62 9.55 151.62 8.67ZM160.02 0L157.56 0.34L157.63 0.91L158.76 1.12L158.76 9.66L157.53 10.08L157.53 10.50L161.07 10.50L161.21 9.83L160.02 9.63ZM175.13 9.63L171.71 0.70L170.69 0.70L167.31 9.66L166.32 10.01L166.32 10.50L169.13 10.50L169.27 9.87L168.14 9.66L168.99 7.42L172.84 7.42L173.74 9.70L172.75 10.01L172.75 10.50L175.97 10.50L176.11 9.87ZM170.91 2.32L172.56 6.65L169.27 6.65ZM181.68 10.50L183.74 10.50L183.88 9.86L182.92 9.62L182.92 0L180.45 0.34L180.52 0.95L181.68 1.18L181.68 3.65C181.16 3.33 180.59 3.18 180.03 3.18C178.22 3.18 176.46 4.69 176.46 7.10C176.46 9.23 177.94 10.61 179.49 10.61C180.38 10.61 181.05 10.28 181.68 9.70ZM179.76 9.69C178.40 9.69 177.86 8.37 177.86 6.80C177.86 5.12 178.95 3.96 180.12 3.96C180.64 3.96 181.19 4.19 181.68 4.69L181.68 8.85C181.10 9.35 180.36 9.69 179.76 9.69ZM190.44 4.03L188.54 8.81L186.65 3.99L187.66 3.64L187.66 3.22L184.44 3.22L184.30 3.85L185.30 4.03L187.87 10.50L188.69 10.50L191.25 4.06L192.26 3.64L192.26 3.22L189.59 3.22L189.45 3.89ZM199.15 10.50L199.29 9.86L198.28 9.62L198.28 5.32C198.28 3.64 197.12 3.09 195.66 3.09C194.71 3.09 193.89 3.39 193.16 3.71L193.16 5.53L193.89 5.66L194.28 4.06C194.71 3.91 195.16 3.86 195.59 3.86C196.38 3.86 197.02 4.26 197.02 5.31L197.02 6.45C196.01 6.57 195.22 6.72 194.31 6.96C193.09 7.28 192.68 7.84 192.68 8.78C192.68 9.95 193.55 10.61 194.54 10.61C195.36 10.61 196.46 10.04 197.02 9.37L197.02 10.50ZM194.08 8.67C194.08 8.09 194.35 7.59 195.23 7.35C195.83 7.18 196.42 7.11 197.02 7.04L197.02 8.64C196.69 9.13 195.80 9.73 195.13 9.73C194.57 9.73 194.08 9.55 194.08 8.67ZM207.09 5.67C207.05 3.88 206.30 3.09 204.96 3.09C204.19 3.09 203.17 3.50 202.54 4.27L202.54 3.12L200.06 3.46L200.13 4.07L201.29 4.30L201.29 9.66L200.07 10.08L200.07 10.50L203.46 10.50L203.60 9.83L202.54 9.63L202.54 4.96C202.90 4.52 203.74 4.24 204.48 4.24C205.38 4.24 205.83 4.55 205.83 5.95L205.83 9.66L204.75 10.08L204.75 10.50L208.07 10.50L208.21 9.87L207.09 9.63ZM214.23 5.75L214.93 5.61L214.93 3.75C214.21 3.30 213.47 3.09 212.70 3.09C210.80 3.09 208.98 4.47 208.98 6.86C208.98 9.28 210.59 10.65 212.49 10.65C213.44 10.65 214.37 10.29 215.11 9.58L214.80 9.04C214.23 9.48 213.39 9.73 212.76 9.73C211.12 9.73 210.38 8.26 210.38 6.76C210.38 5.12 211.34 3.86 212.74 3.86C213.07 3.86 213.43 3.95 213.84 4.10ZM222.32 6.75C222.32 5.00 221.82 3.11 219.32 3.11C217.71 3.11 215.95 4.35 215.95 6.83C215.95 9.25 217.52 10.63 219.37 10.63C220.30 10.63 221.30 10.28 222.21 9.56L221.90 9.03C221.19 9.49 220.50 9.72 219.84 9.72C218.43 9.72 217.35 8.60 217.35 6.75ZM217.39 5.99C217.43 4.62 218.40 3.86 219.28 3.86C220.12 3.86 220.92 4.52 220.92 5.99ZM230.29 9.63L230.29 5.15C230.68 4.63 231.24 4.24 231.98 4.24C232.69 4.24 233.39 4.68 233.39 5.74L233.39 9.66L232.39 10.08L232.39 10.50L235.65 10.50L235.79 9.87L234.65 9.63L234.65 5.74C234.65 3.95 233.73 3.09 232.60 3.09C231.70 3.09 230.72 3.67 230.10 4.55C229.77 3.56 229.14 3.09 228.30 3.09C227.51 3.09 226.55 3.49 225.92 4.27L225.92 3.12L223.44 3.46L223.51 4.07L224.67 4.30L224.67 9.66L223.45 10.08L223.45 10.50L226.77 10.50L226.91 9.83L225.92 9.63L225.92 4.96C226.30 4.52 227.04 4.24 227.64 4.24C228.41 4.24 229.03 4.68 229.03 5.74L229.03 9.66L228.02 10.08L228.02 10.50L231.22 10.50L231.36 9.87ZM242.93 6.75C242.93 5.00 242.42 3.11 239.93 3.11C238.32 3.11 236.56 4.35 236.56 6.83C236.56 9.25 238.13 10.63 239.97 10.63C240.91 10.63 241.91 10.28 242.82 9.56L242.51 9.03C241.79 9.49 241.11 9.72 240.45 9.72C239.04 9.72 237.96 8.60 237.96 6.75ZM238.00 5.99C238.04 4.62 239.01 3.86 239.89 3.86C240.73 3.86 241.53 4.52 241.53 5.99ZM251.08 5.67C251.03 3.88 250.29 3.09 248.95 3.09C248.18 3.09 247.16 3.50 246.53 4.27L246.53 3.12L244.05 3.46L244.12 4.07L245.28 4.30L245.28 9.66L244.06 10.08L244.06 10.50L247.45 10.50L247.59 9.83L246.53 9.63L246.53 4.96C246.89 4.52 247.73 4.24 248.47 4.24C249.37 4.24 249.82 4.55 249.82 5.95L249.82 9.66L248.74 10.08L248.74 10.50L252.06 10.50L252.20 9.87L251.08 9.63ZM257.43 9.20C256.86 9.55 256.44 9.69 256.00 9.69C255.29 9.69 255.19 9.38 255.19 8.36L255.19 4.24L257.43 4.24L257.43 3.47L255.19 3.47L255.19 1.79L254.49 1.79L254.00 3.33L252.83 3.75L252.83 4.24L253.93 4.24L253.93 8.69C253.93 9.83 254.28 10.67 255.51 10.67C256.35 10.67 257.26 10.21 257.70 9.53Z"></path></g><!----><!----></svg>